<?xml version="1.0" standalone="no"?>
<!DOCTYPE svg PUBLIC "-//W3C//DTD SVG 20010904//EN"
 "http://www.w3.org/TR/2001/REC-SVG-20010904/DTD/svg10.dtd">
<svg version="1.0" xmlns="http://www.w3.org/2000/svg"
 width="275.000000pt" height="288.000000pt" viewBox="0 0 275.000000 288.000000"
 preserveAspectRatio="xMidYMid meet">

<g transform="translate(0.000000,288.000000) scale(0.100000,-0.100000)"
fill="#000000" stroke="none">
<path d="M613 2483 c9 -2 23 -2 30 0 6 3 -1 5 -18 5 -16 0 -22 -2 -12 -5z"/>
<path d="M2198 2483 c7 -3 16 -2 19 1 4 3 -2 6 -13 5 -11 0 -14 -3 -6 -6z"/>
<path d="M2501 2255 c1 -19 18 -51 18 -35 0 8 -4 22 -9 30 -5 8 -9 11 -9 5z"/>
<path d="M2521 2184 c0 -11 3 -14 6 -6 3 7 2 16 -1 19 -3 4 -6 -2 -5 -13z"/>
<path d="M1758 2076 c-49 -13 -63 -21 -116 -70 -47 -43 -74 -101 -81 -170 l-6
-58 -178 -90 -179 -90 -21 20 c-40 36 -91 55 -162 60 -90 6 -156 -21 -216 -85
-53 -58 -72 -104 -73 -178 0 -79 18 -129 68 -183 97 -106 242 -123 361 -41
l41 27 181 -91 181 -91 4 -56 c10 -143 121 -243 268 -243 101 -1 194 56 243
148 31 57 31 183 0 240 -47 89 -153 155 -249 155 -50 0 -135 -36 -177 -74
l-37 -33 -172 86 -173 86 0 61 0 60 172 89 173 89 27 -26 c175 -163 463 -41
463 196 0 104 -71 212 -164 251 -50 21 -126 26 -178 11z m129 -156 c64 -38 83
-108 48 -168 -80 -135 -283 -28 -215 113 34 70 105 93 167 55z m-821 -406 c70
-46 71 -161 2 -206 -56 -36 -120 -26 -168 27 -20 21 -25 37 -25 77 0 44 4 53
37 84 31 28 45 34 83 34 26 0 57 -7 71 -16z m851 -428 c58 -63 40 -151 -37
-191 -108 -56 -223 78 -154 179 46 67 135 73 191 12z"/>
</g>
</svg>
