<?xml version="1.0" standalone="no"?>
<!DOCTYPE svg PUBLIC "-//W3C//DTD SVG 20010904//EN"
 "http://www.w3.org/TR/2001/REC-SVG-20010904/DTD/svg10.dtd">
<svg version="1.0" xmlns="http://www.w3.org/2000/svg"
 width="275.000000pt" height="288.000000pt" viewBox="0 0 275.000000 288.000000"
 preserveAspectRatio="xMidYMid meet">

<g transform="translate(0.000000,288.000000) scale(0.100000,-0.100000)"
fill="#000000" stroke="none">
<path d="M327 2709 c-95 -22 -195 -103 -248 -201 l-34 -63 0 -1035 0 -1035 29
-60 c38 -76 110 -149 184 -183 l57 -27 1046 0 1045 0 77 38 c89 44 151 111
189 205 l23 57 0 1010 0 1010 -23 57 c-33 81 -108 160 -190 200 l-67 33 -1025
2 c-574 0 -1042 -3 -1063 -8z m1606 -525 c61 -21 132 -84 164 -148 22 -42 27
-64 27 -126 0 -94 -26 -152 -94 -214 -113 -101 -275 -100 -393 4 l-34 30 -218
-119 -217 -119 -2 -80 -1 -80 220 -120 220 -120 35 33 c113 109 310 102 411
-12 52 -59 73 -118 73 -198 0 -258 -302 -386 -487 -207 -55 52 -79 106 -85
183 l-4 65 -226 124 c-222 121 -226 123 -251 107 -80 -51 -126 -67 -197 -67
-174 0 -305 141 -292 314 19 231 279 351 466 216 l42 -30 228 124 227 124 6
64 c18 193 200 314 382 252z"/>
<path d="M1763 2030 c-89 -54 -82 -200 11 -244 91 -43 190 11 202 111 14 110
-118 192 -213 133z"/>
<path d="M835 1550 c-64 -20 -110 -89 -102 -152 19 -138 194 -175 267 -56 65
107 -45 244 -165 208z"/>
<path d="M1785 1046 c-17 -7 -43 -28 -58 -45 -22 -27 -27 -42 -27 -86 0 -46 5
-59 31 -90 67 -76 190 -62 233 28 33 70 9 145 -60 184 -44 26 -76 28 -119 9z"/>
</g>
</svg>
